<?xml version="1.0" encoding="utf-8"?>
<!-- Generator: Adobe Illustrator 25.2.3, SVG Export Plug-In . SVG Version: 6.00 Build 0)  -->
<svg version="1.1" id="Calque_1" xmlns="http://www.w3.org/2000/svg" xmlns:xlink="http://www.w3.org/1999/xlink" x="0px" y="0px"
	 viewBox="0 0 500 500" style="enable-background:new 0 0 500 500;" xml:space="preserve">
<g>
	<g>
		<path d="M233.8,253.3c-67.7-46.6-104.2-71.4-138.4-96.9c-16.5,27.2-26,59.1-26,93.2c0,61.9,31.2,116.5,78.7,148.9
			C167.9,359.6,194.6,316.1,233.8,253.3"/>
		<path d="M411,289.3c-27.9,29.6-72.5,33.9-104.5,13.8c-6.2-3.9-50.2-34.2-50.2-34.2c-48.6,68.7-73.6,103.2-100.5,134.8
			c27.3,16.7,59.4,26.3,93.8,26.3c96.7,0,175.5-76.1,180-171.6C425.8,269.8,419.3,280.5,411,289.3"/>
		<path d="M377.7,187.7c-6-3.9-44.6-29.7-44.6-29.7c-31.6,46.7-36.6,53.5-60.8,88.2c0,0,42.1,27.2,48.1,31
			c21.8,13.4,50.6,9.4,67.6-9.5c6.6-7.3,11.2-16.2,13-25.7C404.3,224.5,398.7,201.5,377.7,187.7"/>
		<path d="M248,230.6c22.9-36.4,43.5-68.9,76-117.9c0,0,68.1,44.9,74.2,49.2c7.2,5.1,12.4,10.2,16.5,15.2
			c-27.9-63.4-91.3-107.6-165-107.6c-58.7,0-110.9,28.1-143.8,71.6C142.1,162.6,185.5,190.4,248,230.6"/>
		<path d="M79.2,119.9c0-12.6-10.1-22.8-22.7-22.8c-12.5,0-22.8,10.1-22.8,22.7c0,12.6,10.1,22.8,22.6,22.8
			C69,142.6,79.2,132.4,79.2,119.9"/>
		<path d="M115.6,60.4c3.6-2.6,4.4-6.2,2.4-9l-0.1-0.1c-2.3-3.2-5.8-3.2-9.3-0.7l-5.5,4l7,9.8L115.6,60.4z M95.2,53.7l10.7-7.7
			c6.3-4.5,12.9-3.8,16.8,1.7l0,0.1c4.4,6.1,1.8,12.8-4.2,17.1l-5.4,3.9l6.2,8.7l-4.8,3.4L95.2,53.7z"/>
		<path d="M165.9,32.5L165.9,32.5c-2.7-6-9.1-9-15.2-6.3c-6.1,2.7-8.2,9.4-5.5,15.3l0,0.1c2.6,5.9,9.1,8.9,15.2,6.3
			C166.4,45.1,168.5,38.4,165.9,32.5 M139.6,44.1L139.6,44.1c-3.8-8.7-0.4-18.8,9-22.9c9.4-4.2,19.1,0.1,22.9,8.6l0,0.1
			c3.8,8.6,0.4,18.7-9,22.9C153.1,56.9,143.4,52.7,139.6,44.1"/>
	</g>
	<polygon points="185.7,8.5 191.4,7.3 197.4,34.7 214.6,30.9 215.7,36.2 192.8,41.2 	"/>
	<polygon points="232.9,21.3 218.5,1.9 225.3,1.5 235.6,15.7 244.1,0.4 250.8,0 238.8,20.8 239.6,34.1 233.7,34.5 	"/>
	<polygon points="274.8,7.3 264.3,6 264.9,0.6 291.8,3.7 291.2,9.1 280.6,7.9 277.4,35.7 271.5,35 	"/>
	<polygon points="311.7,8.1 335.4,15.3 333.8,20.4 315.8,14.8 313.2,23.1 329.2,28 327.7,33.1 311.7,28.1 309,36.7 327.3,42.3 
		325.8,47.3 301.9,40 	"/>
	<g>
		<path d="M346.9,38.1L346.9,38.1c4.5-8.4,14.5-11.9,23.4-7.1c5.4,2.9,7.7,6.6,9,10.8l-5.4,2.1c-1.2-3.5-2.9-6.3-6.3-8.1
			c-5.6-3-12.2-0.6-15.3,5.2l0,0.1c-3.1,5.7-1.6,12.7,4,15.7c3.6,2,6.7,1.7,10.5,0.7l1.5,5.2c-4.8,1.5-9.2,1.7-14.7-1.2
			C345.2,56.7,342.4,46.5,346.9,38.1"/>
	</g>
	<polygon points="398.9,49.7 403.4,53.5 394.5,64.1 406.7,74.3 415.7,63.7 420.1,67.5 398.7,93.1 394.2,89.3 403.2,78.5 391,68.3 
		382,79.1 377.5,75.3 	"/>
	<polygon points="437.9,85.9 441.3,90.2 433.9,118.5 452.2,104.3 455.7,108.9 429.3,129.3 426.3,125.4 433.8,96.3 415.1,110.9 
		411.5,106.3 	"/>
	<polygon points="467.3,128.2 470.1,133.4 440.8,149.3 438,144.2 	"/>
	<g>
		<path d="M461.8,183.1l2.7-7l5.3,2.2l-3.1,7.1c2,0.5,4.2,0.4,6.5-0.4l0.1,0c6.1-2.1,9.7-8.3,7.5-14.6c-2.2-6.3-8.6-8.9-14.8-6.8
			l-0.1,0c-6.1,2.1-9.7,8.3-7.5,14.6C459.1,180.2,460.4,181.9,461.8,183.1 M459.6,188.4c-2.8-2-5-4.9-6.3-8.6
			c-3.3-9.7,1.7-19,10.6-22.1l0.1,0c8.9-3,18.7,1.3,22,11c3.3,9.7-1.7,19-10.6,22l-0.1,0c-3.6,1.2-7.4,1.3-10.8,0.1l-1.9,4.7
			l-5.2-2.2L459.6,188.4z"/>
		<path d="M476.5,208.7l19.1-2.2l0.7,5.8l-18.9,2.2c-6.1,0.7-9.1,4.3-8.5,9.5c0.6,5.2,4.1,8,10.2,7.2l19.1-2.3l0.7,5.8l-18.8,2.2
			c-9.9,1.2-15.5-3.9-16.5-12.5C462.5,216,466.9,209.9,476.5,208.7"/>
	</g>
	<polygon points="499.1,257.5 497.2,282.1 492,281.7 493.4,262.9 484.8,262.2 483.5,278.9 478.2,278.5 479.5,261.8 470.6,261.1 
		469.1,280.2 463.9,279.8 465.8,254.9 	"/>
	<polygon points="107.6,454.6 102.8,451.2 122.2,424 127,427.4 	"/>
	<polygon points="83,435.7 79.2,431.9 83,402.9 66.6,419.2 62.6,415.1 86.2,391.6 89.7,395.1 85.8,424.9 102.7,408.1 106.7,412.2 	
		"/>
	<g>
		<path d="M72.7,382.4l-5.4-0.7c0.6-4.2,0.1-7.7-2.2-11.2c-2-3-4.7-4-6.8-2.6l-0.1,0c-2,1.3-2.3,3.1-0.1,9.1
			c2.5,6.9,2.9,11.4-2.2,14.8l-0.1,0.1c-4.8,3.1-10.7,1.3-14.4-4.2c-2.7-4.1-3.6-8.1-3.2-12.4l5.4,0.2c-0.2,3.8,0.4,6.9,2.1,9.5
			c1.9,2.9,4.5,3.6,6.3,2.4l0.1-0.1c2.2-1.4,2.3-3.3,0-9.5c-2.4-6.8-2.3-11.3,2.3-14.3l0.1-0.1c5.2-3.4,11-1.4,14.9,4.5
			C72.3,372.1,73.5,377.1,72.7,382.4"/>
	</g>
	<polygon points="26.9,348.9 31.1,358.7 26.1,360.8 15.4,335.9 20.4,333.8 24.6,343.5 50.3,332.5 52.6,337.9 	"/>
	<polygon points="8.4,312.2 9.9,317.8 42.1,309.1 40.6,303.4 	"/>
	<polygon points="8.1,282.7 9.4,293.2 4,293.9 0.6,267 6,266.3 7.4,276.8 35.1,273.4 35.8,279.2 	"/>
	<g>
		<path d="M19.2,249L0,247.7l0.4-5.9l19,1.2c6.2,0.4,9.7-2.6,10.1-7.8c0.3-5.2-2.6-8.6-8.7-9l-19.2-1.2l0.4-5.8l18.9,1.2
			c10,0.6,14.6,6.6,14,15.3C34.2,244.4,28.9,249.6,19.2,249"/>
	</g>
	<polygon points="12.9,191.3 10.2,201.5 5,200.2 11.8,173.9 17,175.3 14.4,185.6 41.4,192.6 40,198.3 	"/>
	<g>
		<path d="M181.6,479.4c5.2,1.5,9.1,0.3,10.5-4.6l0-0.1c1.4-4.9-1.3-7.9-6.5-9.4l-1.9-0.5l-4,14.1L181.6,479.4z M175.3,451.9
			l12.9,3.7c13.4,3.8,18.2,12.3,15.4,22.2l0,0.1c-2.8,10-11.6,15.1-25.3,11.2l-12.5-3.6L175.3,451.9z"/>
	</g>
	<polygon points="224.8,463.6 254.6,465 254.1,474.6 235.8,473.7 235.6,477.3 252.7,478.1 252.3,486.6 235.2,485.7 235,489.5 
		253.6,490.4 253.1,500 223.1,498.5 	"/>
	<g>
		<path d="M318,471.7c2.9-0.9,4.4-2.7,3.7-5.2l0-0.1c-0.8-2.4-2.9-3.1-5.9-2.2l-3,0.9l2.3,7.4L318,471.7z M298.8,459.6l15.1-4.6
			c8.9-2.7,16.1-0.6,18.6,7.3l0,0.1c2.5,8.1-2.4,14.3-11.4,17l-3.6,1.1l2.8,9.1l-11.2,3.4L298.8,459.6z"/>
	</g>
	<path d="M369.6,454.3l-7-5.8l1.4,8.9L369.6,454.3z M350.9,439.3l10.1-5.7l30.2,23.4l-11,6.3l-3.9-3.2l-10.6,6l0.8,5l-10.9,6.2
		L350.9,439.3z"/>
	<g>
		<path d="M408.6,418.5c2.1-1.9,2.4-4,1-5.6l-0.1-0.1c-1.5-1.7-3.6-1.3-5.5,0.6l-3.7,3.5l4.7,5L408.6,418.5z M385,417.7l12.5-11.7
			c4.5-4.2,8.5-5.8,11.9-5.7c3,0.1,5.5,1.2,8,3.9l0.1,0.1c3.5,3.7,4,8.1,2.3,12.5l14.1,3.1l-9.8,9.1l-11.6-2.8l-0.1,0.1l-1.7,1.6
			l6.8,7.3l-8.5,8L385,417.7z"/>
	</g>
	<polygon points="420,381.3 426.9,371.9 455.2,392.6 448.2,402 	"/>
	<g>
		<path d="M462.5,372.4l-4-8.9c4.3-2.2,7.3-5.5,9-9.2c0.9-1.9,0.8-3,0-3.4l-0.1,0c-0.9-0.5-1.9,0.3-4.2,3.4
			c-4.9,6.3-9.9,11.6-16.6,8.3l-0.1,0c-6-2.9-8.3-9.8-4.1-18.5c3-6.1,6.6-9.9,11.2-12.1l4.6,8.6c-3.6,1.9-6.3,5-7.7,7.9
			c-0.8,1.6-0.6,2.5,0.2,2.9l0.1,0c0.8,0.4,1.8-0.2,4.1-3.2c5.4-7.3,10.3-11.6,16.7-8.5l0.1,0c6.6,3.2,8,10.6,3.9,19.1
			C472.5,365.2,467.9,370,462.5,372.4"/>
	</g>
</g>
</svg>
